# xmcd
#
# Track frame offsets: 
#        150
#        3261
#        21540
#        31900
#        51599
#        69637
#        90368
#        106075
#        117438
#        139397
#        153387
#        165757
#        180857
#        195046
#        209181
#        212728
#        227881
#
# Disc length: 3276 seconds
#
# Revision: 0
# Processed by: cddbd v1.5.2PL0 Copyright (c) Steve Scherf et al.
# Submitted via: ExactAudioCopy v0.99pb3
#
DISCID=e00cca11
DTITLE=Okna Tsahan Zam - Khoomei
DYEAR=2007
DGENRE=Acoustic
TTITLE0=Intro
TTITLE1=Edjin Duun
TTITLE2=Khoomei
TTITLE3=Akhner Duner
TTITLE4=Moukhna Tsahan
TTITLE5=Sibir
TTITLE6=Edjin Duun(Acoustic)
TTITLE7=String Duet
TTITLE8=Samarine
TTITLE9=Khomei_3voice
TTITLE10=Moukhna Tsahan
TTITLE11=Djangar
TTITLE12=Ar Bumbin Orn
TTITLE13=Khomei Choir
TTITLE14=Outro
TTITLE15=Davour Galzen
TTITLE16=Davour Galzen(Radio Remix)
EXTD=
EXTT0=
EXTT1=
EXTT2=
EXTT3=
EXTT4=
EXTT5=
EXTT6=
EXTT7=
EXTT8=
EXTT9=
EXTT10=
EXTT11=
EXTT12=
EXTT13=
EXTT14=
EXTT15=
EXTT16=
PLAYORDER=
